<svg version="1.1" id="Layer_1" xmlns="http://www.w3.org/2000/svg" xmlns:xlink="http://www.w3.org/1999/xlink" x="0px" y="0px"
	 width="100%" viewBox="0 0 1024 953"  xml:space="preserve">

<path fill="#0148AB" opacity="1.000000" stroke="none" 
	d="
M88.035141,643.183655 
	C86.795341,642.661987 85.555534,642.140381 84.179932,641.348755 
	C84.044128,641.078796 83.954010,640.908386 83.954010,640.908386 
	C83.954010,640.908386 83.968025,641.100586 83.968018,641.100586 
	C79.299049,638.517700 74.228218,636.461304 70.032455,633.258484 
	C54.043457,621.053528 44.499062,604.913696 42.230381,584.790588 
	C41.566708,578.903809 41.258373,572.945923 41.254280,567.020386 
	C41.192604,477.702576 41.210030,388.384766 41.206104,299.066956 
	C41.205326,281.371796 41.192455,263.676636 41.185905,245.981491 
	C41.167267,195.624191 41.010281,145.266068 41.306908,94.910629 
	C41.343815,88.645241 43.048016,82.115349 45.279572,76.198265 
	C49.112476,66.035095 54.758060,56.760777 62.569347,49.003338 
	C73.977402,37.673939 87.605850,30.565498 103.506096,28.201702 
	C109.356316,27.331987 115.355721,27.511175 121.271828,27.026039 
	C126.725746,26.578804 132.154968,27.008936 137.678818,25.622244 
	C141.476166,24.668970 145.968536,26.956879 150.147766,26.944733 
	C156.909134,26.925085 163.664780,26.105137 170.431427,25.857208 
	C171.985809,25.800257 173.598785,27.141535 175.143433,27.059608 
	C178.795486,26.865906 182.418198,26.162878 186.063232,25.760630 
	C186.914597,25.666677 187.833023,25.856628 188.674576,26.085323 
	C189.578903,26.331078 190.595886,27.282513 191.277573,27.057837 
	C200.343719,24.069710 209.398804,27.408699 218.435333,26.952272 
	C223.996826,26.671366 229.534027,25.763763 235.093704,25.634481 
	C240.576187,25.506996 246.071457,26.111427 251.564331,26.203880 
	C259.021576,26.329395 266.481995,26.259888 273.940826,26.304081 
	C275.964325,26.316069 277.987976,26.417419 280.010101,26.510347 
	C286.467255,26.807091 292.849213,26.992472 299.325806,25.718746 
	C301.257782,25.338793 303.671143,26.427650 306.362885,25.917130 
	C310.062256,25.215506 314.160309,26.541754 318.076355,27.080141 
	C321.238708,27.514908 324.114136,26.063547 327.543762,26.525734 
	C332.943329,27.253401 338.459747,25.020210 344.256927,26.788324 
	C347.371094,27.738132 351.262573,25.794514 354.805481,25.782269 
	C358.210846,25.770498 361.607941,26.761841 365.028839,26.955217 
	C368.992889,27.179293 372.979004,27.001291 376.955414,27.020792 
	C381.157288,27.041395 385.370941,27.301966 389.557495,27.066917 
	C394.035553,26.815508 398.478149,25.968897 402.955353,25.652086 
	C405.614410,25.463926 408.316162,25.717836 410.988342,25.913969 
	C414.901917,26.201214 418.804352,26.874203 422.714905,26.901516 
	C426.606293,26.928696 430.502899,26.372946 434.393494,26.030567 
	C434.668243,26.006392 434.927368,25.434444 435.168518,25.452579 
	C441.759674,25.948082 448.340546,26.743118 454.938568,26.923136 
	C458.890259,27.030951 462.859680,26.033667 466.836487,25.821577 
	C470.064545,25.649420 473.315308,25.950226 476.556335,25.963930 
	C481.334320,25.984133 486.113251,25.878443 490.890442,25.935879 
	C494.236511,25.976110 497.580170,26.310020 500.925323,26.317177 
	C507.704132,26.331678 514.483276,26.167845 521.262268,26.168283 
	C524.885376,26.168518 528.511658,26.503942 532.130676,26.423347 
	C536.345276,26.329491 540.551208,25.796484 544.765015,25.734949 
	C548.262695,25.683874 551.768005,26.012527 555.266968,26.222307 
	C560.248596,26.520977 565.225159,27.091824 570.208130,27.143602 
	C581.714355,27.263168 593.223206,27.104359 604.730896,27.123903 
	C624.369019,27.157259 640.938538,34.681156 655.789917,47.228962 
	C667.952209,57.504742 674.141174,71.149513 677.440796,85.850616 
	C679.570740,95.340271 678.435547,105.557419 678.824219,115.446152 
	C678.961487,118.937294 679.287598,122.420784 679.510803,125.908844 
	C679.638123,127.898712 679.807800,129.890015 679.827209,131.881958 
	C679.905945,139.955414 680.072449,148.031876 679.927124,156.102188 
	C679.844116,160.709106 678.939453,165.305466 678.926208,169.908112 
	C678.914001,174.120575 679.842590,178.330322 679.925598,182.549759 
	C680.044495,188.596970 679.843079,194.654312 679.640564,200.702698 
	C679.507996,204.662277 678.949219,208.611389 678.899597,212.569183 
	C678.770142,222.879745 678.648499,233.195618 678.839355,243.503540 
	C679.030090,253.805634 679.722900,264.098022 679.945435,274.400116 
	C680.025024,278.084595 679.159851,281.781219 679.097046,285.478607 
	C678.930237,295.298218 678.867554,305.122284 678.964905,314.942566 
	C679.009216,319.412384 679.528931,323.877502 679.885437,329.115692 
	C678.627747,329.331177 676.789551,329.914398 674.949768,329.919312 
	C658.786743,329.962524 642.588013,329.222321 626.470276,330.063904 
	C610.207153,330.913147 595.466797,336.450195 582.833496,347.486633 
	C570.426392,358.325562 562.806885,372.335846 554.797424,386.225098 
	C547.530029,398.827576 540.018005,411.288971 532.614990,423.813263 
	C527.380249,432.669403 522.147522,441.526733 516.132080,450.389709 
	C502.473114,450.273804 489.595947,450.116425 476.718506,450.086243 
	C475.486267,450.083374 474.252197,450.873627 473.043365,451.415802 
	C473.067749,451.535919 473.119965,451.775421 473.119965,451.775421 
	C460.095673,454.301331 448.871765,459.922668 444.060577,473.010406 
	C437.970032,489.578308 442.695099,505.497040 457.952026,514.952820 
	C463.203491,518.207520 469.021545,520.548035 474.608215,523.708374 
	C474.583649,524.226990 474.456451,524.385681 474.493622,524.451660 
	C474.606445,524.651978 474.782867,524.816406 474.934509,524.994812 
	C474.934540,524.994812 475.002899,524.994080 474.989807,525.470337 
	C475.037628,527.422729 475.098541,528.898926 475.163818,530.807678 
	C475.169678,568.350891 475.171173,605.461609 475.147949,643.004639 
	C475.106903,644.014099 475.090607,644.591309 474.686523,645.312622 
	C471.473694,645.577209 468.648712,645.802307 465.823669,645.802856 
	C350.658295,645.823364 235.492920,645.814331 120.327576,645.874512 
	C117.056244,645.876221 113.785278,646.587585 110.438141,646.951050 
	C110.362144,646.934143 110.207031,646.920166 110.207031,646.920166 
	C110.039154,646.873657 109.871277,646.827209 109.163635,646.479248 
	C101.760963,645.179626 94.898056,644.181641 88.035141,643.183655 
M462.165894,324.685547 
	C463.827454,322.052948 465.737854,319.543396 467.110443,316.767883 
	C476.496155,297.788666 480.219086,277.429169 479.951385,256.519073 
	C479.805634,245.136932 478.410004,233.550385 475.794128,222.477493 
	C472.704865,209.400665 467.218536,197.063080 457.600128,187.036789 
	C446.238770,175.193649 433.561676,165.694626 417.127777,161.974518 
	C408.266907,159.968674 399.682770,156.460007 390.750122,155.119843 
	C378.422882,153.270355 365.891632,152.041061 353.435150,151.927124 
	C311.275055,151.541519 269.109314,151.790741 226.945953,151.704514 
	C223.645035,151.697769 222.685165,152.900986 222.681000,156.096252 
	C222.670273,164.309708 222.192505,172.522049 222.149734,180.736115 
	C222.114075,187.584579 222.622849,194.436966 222.547714,201.283875 
	C222.423950,212.565079 221.995026,223.842651 221.757095,235.123062 
	C221.687180,238.437286 221.720886,241.761856 221.902786,245.070938 
	C222.081818,248.328125 222.804443,251.574646 222.771698,254.820648 
	C222.675568,264.353180 222.143051,273.882904 222.131866,283.414154 
	C222.124130,290.006653 222.809479,296.596985 222.975784,303.193573 
	C223.113022,308.636963 222.959488,314.088226 222.902466,319.535675 
	C222.874710,322.186798 222.830811,324.840240 222.691956,327.487274 
	C222.453964,332.023651 221.919067,336.555847 221.920303,341.089691 
	C221.921280,344.654022 222.880463,348.224365 222.815872,351.781158 
	C222.692230,358.587463 221.809982,365.388275 221.854568,372.187317 
	C221.910461,380.717987 222.822845,389.241669 222.928009,397.773773 
	C223.071274,409.395172 222.746643,421.021606 222.725021,432.646057 
	C222.706802,442.444763 222.854797,452.243652 222.890228,462.042603 
	C222.911560,467.942413 222.853363,473.842468 222.839844,479.742432 
	C222.824112,486.601959 222.693146,493.466217 222.950043,500.315704 
	C222.986313,501.283112 224.904663,502.936584 226.003555,502.980530 
	C231.706390,503.208710 237.426086,503.027527 243.139740,502.970734 
	C253.765472,502.865112 264.390961,502.726349 275.016846,502.642090 
	C280.801056,502.596191 286.585938,502.633911 292.974609,502.633911 
	C292.974609,498.242889 292.970032,493.787811 292.975464,489.332764 
	C292.995453,472.860565 292.933014,456.387543 293.091675,439.916656 
	C293.140869,434.809570 294.130646,429.705536 294.089233,424.605011 
	C294.031464,417.483459 293.068634,410.364227 293.115326,403.248077 
	C293.175049,394.134705 293.843811,385.024933 294.272125,375.914612 
	C294.378967,373.642059 293.838684,370.820099 294.986572,369.302673 
	C295.719910,368.333221 299.009644,369.415833 301.149200,369.373505 
	C322.055450,368.959747 342.977020,368.859802 363.859894,367.912994 
	C374.891113,367.412811 385.992798,366.111420 396.820892,363.956665 
	C422.943634,358.758331 446.098602,348.087891 462.165894,324.685547 
z"/>
<path fill="#0148AA" opacity="1.000000" stroke="none" 
	d="
M488.219971,516.330688 
	C479.754547,511.965485 471.150513,507.846008 462.861328,503.168457 
	C453.930054,498.128510 452.028503,486.053192 455.575836,477.844177 
	C458.541840,470.980438 463.430634,467.385681 471.105652,466.741577 
	C471.458801,466.649689 471.455383,466.981964 471.866943,467.171051 
	C487.794495,467.488373 503.310425,467.630402 518.826660,467.703094 
	C519.580322,467.706635 520.336853,467.101257 521.077148,466.640900 
	C521.062317,466.502380 521.030701,466.225586 521.030701,466.225586 
	C534.379517,443.758209 547.640686,421.238129 561.111328,398.843994 
	C568.682800,386.256866 576.002014,373.448212 584.552185,361.541718 
	C591.313232,352.126587 601.643188,346.993774 612.885132,344.097839 
	C614.606506,343.654419 616.397949,343.483185 618.946167,343.374573 
	C622.218323,343.714172 624.701233,343.996094 627.184326,343.997345 
	C697.696289,344.033203 768.208313,344.047394 838.720276,344.021484 
	C840.847656,344.020691 842.974976,343.552551 845.102295,343.302307 
	C845.504089,343.273163 845.905823,343.244049 846.821655,343.449341 
	C848.917603,343.852570 850.499390,344.021362 852.081238,344.190155 
	C860.366516,345.150543 867.027405,349.700928 873.572754,354.268433 
	C882.361572,360.401489 887.630981,369.477539 893.004211,378.459564 
	C903.759399,396.437988 914.726990,414.289307 925.495239,432.259949 
	C931.633789,442.504272 937.628845,452.837158 943.508911,463.231750 
	C944.794128,465.503693 945.898315,466.277100 948.750854,466.193695 
	C954.149231,466.035706 959.571228,467.156403 964.995667,467.308197 
	C973.186096,467.537354 981.387146,467.414978 989.583557,467.394196 
	C993.117493,467.385223 996.677368,466.947327 1000.179626,467.244659 
	C1008.281433,467.932373 1012.720032,473.434601 1013.727966,480.628479 
	C1015.188049,491.049683 1013.760681,499.871490 1004.383362,504.197296 
	C996.522522,507.823547 988.749756,511.690186 980.689331,514.807800 
	C977.762207,515.940002 977.029785,517.493835 976.836609,520.021423 
	C976.760681,521.015808 976.800659,522.019653 976.800964,523.019226 
	C976.814453,565.836548 976.847534,608.653870 976.819031,651.471191 
	C976.815857,656.278687 974.253601,659.538513 969.666199,660.810059 
	C966.740112,661.621155 965.935791,663.176819 965.882385,666.098694 
	C965.749451,673.373596 965.476929,680.667725 964.747253,687.902344 
	C964.262512,692.708862 961.144287,695.621033 956.135254,695.775879 
	C951.656982,695.914368 947.168762,695.698853 942.685059,695.702820 
	C931.064392,695.713074 919.443726,695.751953 907.823059,695.792664 
	C903.605957,695.807434 899.368347,696.135742 895.177185,695.823853 
	C890.134766,695.448669 887.254089,692.119446 887.216370,687.139160 
	C887.154175,678.920959 887.199463,670.701904 887.199463,662.144165 
	C784.586914,662.144165 682.570801,662.144165 579.954956,662.144165 
	C579.954956,668.041931 580.099609,673.650635 579.901184,679.247253 
	C579.780273,682.658630 579.515625,686.156738 578.619568,689.425110 
	C577.544800,693.345398 574.765625,695.682983 570.377869,695.815735 
	C559.850891,696.134033 549.330322,696.693054 538.802002,696.925354 
	C530.033997,697.118896 521.258301,697.042542 512.486816,696.978821 
	C506.110901,696.932556 501.142212,691.799316 501.061646,685.275330 
	C500.999908,680.277893 500.668915,675.243225 501.141632,670.290405 
	C501.678711,664.663757 500.636292,660.589233 494.234009,659.037903 
	C492.849823,655.596375 491.534058,652.735962 490.218323,649.875488 
	C490.220978,649.477966 490.223663,649.080383 490.356110,648.175964 
	C490.322083,647.113586 490.158264,646.558105 489.994415,646.002625 
	C489.991241,645.785034 489.988098,645.567383 489.919861,644.991272 
	C489.854706,644.632751 489.934113,644.511536 490.144714,644.114685 
	C490.595734,638.801819 491.063202,633.884216 491.028473,628.970154 
	C490.959961,619.273804 490.613220,609.579468 490.381531,599.884277 
	C490.160126,599.612976 489.938660,599.341614 489.654846,598.644653 
	C489.592468,598.218994 490.020355,598.210144 490.228210,597.830811 
	C490.280792,587.471436 490.125488,577.491455 489.874207,567.427490 
	C489.778229,567.343567 489.582764,567.179749 489.582764,567.179749 
	C489.722748,567.002563 489.862762,566.825439 490.289917,565.952881 
	C490.655853,549.928894 490.746887,534.600342 490.777466,519.271729 
	C490.779022,518.501221 490.257111,517.729736 489.767975,516.848999 
	C489.111359,516.603027 488.665649,516.466858 488.219971,516.330688 
M611.997559,374.937134 
	C611.997559,374.937134 611.908997,374.950714 611.254272,375.042786 
	C610.152466,375.982422 609.050659,376.922058 607.771423,378.355042 
	C607.500000,378.564178 607.228577,378.773346 606.308594,379.199066 
	C604.527527,381.779541 602.746521,384.360016 600.985657,387.001038 
	C600.985657,387.001038 600.929871,386.969025 600.346191,387.287109 
	C596.084717,394.113068 591.691040,400.861450 587.620850,407.799591 
	C585.746643,410.994385 584.505737,414.560669 582.985046,418.009705 
	C582.985046,418.009705 582.941528,417.978760 582.338623,418.258240 
	C578.561707,424.843872 574.784851,431.429474 571.000000,437.998169 
	C571.000000,437.998169 571.018677,438.007996 570.367554,438.218140 
	C569.226990,439.379608 567.814392,440.375458 566.990051,441.729462 
	C561.711609,450.399902 556.446960,459.083527 551.434387,467.908569 
	C549.731323,470.906982 548.132019,474.242737 547.689758,477.583801 
	C547.380798,479.917816 549.119629,482.522888 550.409302,485.222198 
	C550.603760,485.496948 550.798218,485.771698 551.271484,486.688324 
	C554.584961,487.755646 557.898438,488.822968 562.111084,489.913208 
	C676.312622,489.894867 790.514221,489.876526 905.588562,489.875488 
	C915.714172,489.535278 921.272034,485.098846 919.000061,477.166626 
	C915.393860,464.575836 908.083862,453.669434 899.143311,443.402161 
	C899.110596,443.226990 899.077881,443.051819 898.971130,442.149017 
	C898.799561,441.509552 898.757080,440.795563 898.437195,440.241699 
	C892.225830,429.485504 886.011536,418.730652 879.691162,408.038513 
	C879.161865,407.143127 877.875061,406.695557 876.991150,406.000000 
	C876.991150,406.000000 876.969177,406.059875 876.753296,405.677826 
	C876.581543,405.440918 876.404175,405.208344 876.141907,404.462097 
	C876.102783,404.291840 876.063599,404.121613 875.935181,403.217041 
	C872.321106,397.131134 868.707031,391.045227 865.027527,384.985229 
	C865.027527,384.985229 865.045471,384.917206 864.972534,384.238220 
	C863.973145,383.162292 862.973816,382.086365 861.532104,380.806732 
	C861.256165,380.607971 861.076843,380.343689 860.774475,379.361664 
	C858.174316,377.581146 855.574097,375.800629 853.001831,374.000946 
	C853.001831,374.000946 852.982178,374.031738 852.653442,373.417664 
	C847.769470,368.376587 841.203491,369.138824 835.278137,369.122223 
	C768.539246,368.935272 701.799683,369.001770 635.060364,369.096893 
	C632.679688,369.100281 630.300476,370.103546 627.274841,370.758026 
	C626.840027,370.807678 626.405151,370.857330 625.284607,370.594330 
	C620.859436,369.513580 617.058716,370.507202 614.004517,374.003906 
	C614.004517,374.003906 613.990967,374.004120 613.449280,374.118439 
	C612.960144,374.361969 612.471008,374.605469 611.997559,374.937134 
M864.412170,583.503418 
	C865.721863,583.698242 867.031616,584.062439 868.341309,584.062500 
	C887.635620,584.063354 906.930054,584.034485 926.223999,583.936035 
	C927.466003,583.929688 928.704773,583.297546 929.971191,582.554871 
	C929.971191,582.554871 929.999207,582.153320 930.768372,582.036255 
	C937.371155,581.270813 939.978394,577.855225 939.979065,570.499084 
	C939.979675,564.679871 939.819336,558.853760 940.051697,553.043518 
	C940.265991,547.684082 937.440857,543.677368 932.849426,543.319580 
	C924.687134,542.683472 916.328796,543.102356 908.177368,544.100525 
	C892.817383,545.981262 877.531433,548.495178 862.244019,550.929871 
	C854.624878,552.143372 849.705688,554.028564 849.913635,564.767822 
	C849.942627,566.263794 849.934631,567.760376 849.943298,569.256714 
	C849.997742,578.596558 851.731323,580.588562 860.941833,582.060730 
	C861.704163,582.182617 862.395264,582.750244 863.369629,583.114746 
	C863.369629,583.114746 863.618530,583.089172 864.412170,583.503418 
M609.004578,582.530090 
	C609.004578,582.530090 609.033875,582.194946 609.749573,582.040161 
	C615.296448,580.197876 617.183167,576.044312 617.041565,570.570984 
	C616.989868,568.574890 617.056763,566.575867 617.063721,564.578186 
	C617.085754,558.298157 614.467407,554.630615 608.309448,552.779663 
	C605.992676,552.083313 603.527283,551.873657 601.124573,551.472412 
	C591.955078,549.941223 582.794983,548.348267 573.609619,546.918640 
	C562.833374,545.241394 552.000671,543.905640 541.258118,542.042908 
	C534.717163,540.908813 527.590881,544.263550 526.712280,550.894775 
	C525.748474,558.168457 526.189270,565.679565 526.557129,573.060364 
	C526.805725,578.049255 530.377258,580.771362 534.961365,582.504272 
	C534.961365,582.504272 534.971436,582.806091 535.344849,583.268250 
	C536.444763,583.531738 537.544312,584.023254 538.644714,584.025146 
	C560.706543,584.063782 582.768433,584.067017 604.830078,583.989197 
	C606.213806,583.984375 607.595032,583.256714 609.004578,582.530090 
M814.486145,609.494019 
	C814.486145,609.494019 814.386230,609.354492 814.405273,608.563354 
	C814.422974,608.036072 814.440735,607.508789 814.751526,606.213318 
	C814.751526,598.167236 814.751526,590.121155 814.751526,582.075073 
	C814.492065,582.079895 814.232666,582.084778 813.973206,582.089600 
	C813.973206,587.715393 813.973206,593.341187 813.286804,598.463623 
	C813.205994,595.306885 813.092712,592.150574 813.053284,588.993286 
	C813.011719,585.667175 813.266357,582.321289 812.989929,579.017639 
	C812.479736,572.921509 806.569092,568.727234 798.504761,568.705261 
	C780.359009,568.655823 762.212891,568.706482 744.066956,568.716309 
	C719.261841,568.729736 694.456604,568.714539 669.651611,568.771118 
	C660.256897,568.792542 654.454651,573.301758 654.883545,583.337830 
	C655.309753,593.308228 655.475586,603.343018 654.843689,613.291626 
	C654.086975,625.205017 660.351501,629.250427 670.670715,629.205383 
	C712.622375,629.022095 754.575256,629.106567 796.527649,629.098938 
	C808.219849,629.096802 810.537292,627.488586 813.995178,617.318726 
	C814.240112,617.566650 814.485046,617.814575 814.729980,618.062500 
	C814.779114,617.912781 814.877808,617.760315 814.869873,617.613708 
	C814.751099,615.412903 814.618286,613.212891 814.427429,610.323669 
	C814.413574,610.093445 814.399658,609.863281 814.486145,609.494019 
M858.396118,583.192566 
	C858.381104,583.389771 858.366089,583.586914 858.351074,583.784119 
	C858.600037,583.730591 858.849060,583.677063 859.098022,583.623474 
	C858.940735,583.467224 858.783447,583.310974 858.396118,583.192566 
z"/>
<path fill="#0247A8" opacity="1.000000" stroke="none" 
	d="
M371.693848,764.412476 
	C375.741089,775.243103 379.472076,785.775146 383.526215,796.181274 
	C388.510223,808.974121 393.831268,821.635193 398.887024,834.400635 
	C409.309357,860.716492 419.657196,887.061768 430.013641,913.403687 
	C430.537415,914.735962 430.853790,916.149780 431.388641,917.931641 
	C419.962830,917.931641 408.975250,918.043335 397.996216,917.788574 
	C396.641144,917.757141 394.684326,916.041504 394.105408,914.649231 
	C390.275726,905.438965 387.289520,895.833557 382.862762,886.936951 
	C380.986084,883.165222 379.718323,879.598267 379.094513,875.573608 
	C378.554840,872.091248 376.478882,870.797180 372.827911,870.820190 
	C350.670624,870.960083 328.511627,870.943604 306.354034,870.827026 
	C302.830994,870.808472 301.027008,872.012939 299.804230,875.394226 
	C295.019897,888.624146 290.004578,901.772339 284.875885,914.872986 
	C284.373779,916.155640 282.521179,917.742065 281.266632,917.767395 
	C270.118439,917.993164 258.963776,917.898804 246.849258,917.898804 
	C249.321320,912.140259 251.889008,907.074280 253.672287,901.745789 
	C255.434570,896.479797 254.832947,889.612427 258.058075,885.819946 
	C264.227509,878.565247 265.254181,869.646606 268.622803,861.588318 
	C276.374176,843.045959 283.130035,824.088806 290.369568,805.330750 
	C297.185120,787.671265 304.104523,770.051819 310.974152,752.413147 
	C312.338409,748.910278 313.699158,745.405945 315.035522,741.892395 
	C317.751373,734.752014 318.927277,734.130737 326.316711,734.648376 
	C335.218811,735.272095 344.140015,735.624084 353.054108,736.070862 
	C353.530121,736.094788 354.048157,735.984375 354.492554,735.803589 
	C355.781860,735.279236 357.846649,733.910461 358.178925,734.254150 
	C359.728607,735.856750 361.128265,737.788330 361.978546,739.850952 
	C365.283691,747.868713 368.359619,755.980896 371.693848,764.412476 
M346.577087,788.017090 
	C344.484955,782.318787 342.392792,776.620544 340.300659,770.922241 
	C339.623291,770.836670 338.945892,770.751099 338.268524,770.665527 
	C329.587860,794.148376 320.907196,817.631287 311.980804,841.778870 
	C330.866028,841.778870 348.312469,841.778870 366.089325,841.778870 
	C359.588837,823.744812 353.275909,806.231079 346.577087,788.017090 
z"/>
<path fill="#0247A9" opacity="1.000000" stroke="none" 
	d="
M509.931366,853.244812 
	C505.118500,853.244812 500.305664,853.244812 495.413147,853.244812 
	C495.413147,874.048096 495.413147,895.557617 495.413147,917.503784 
	C483.133148,917.503784 470.487488,917.503784 457.702087,917.503784 
	C457.702087,856.172424 457.702087,795.302246 457.702087,734.739929 
	C460.342651,734.739929 462.359039,734.719727 464.374908,734.743225 
	C476.764282,734.887878 489.153229,735.084839 501.542969,735.181702 
	C513.698364,735.276794 525.862488,735.010742 538.008606,735.374512 
	C556.495422,735.928040 573.635132,740.480530 586.866882,754.456970 
	C594.089172,762.085571 597.973389,771.696411 598.705688,781.908386 
	C599.508789,793.108093 599.660400,804.427673 596.019592,815.504822 
	C590.978516,830.841797 580.443604,840.586426 566.121033,846.797302 
	C557.756775,850.424377 548.971924,852.250488 538.881714,851.943420 
	C535.160706,852.027405 532.349609,851.902771 529.552002,852.044617 
	C523.008362,852.376709 516.471191,852.836670 509.931366,853.244812 
M514.300232,823.462341 
	C521.850342,823.629028 529.400513,823.795776 537.777893,823.943848 
	C544.224426,822.836426 550.950134,822.337036 554.996216,815.998779 
	C554.996216,815.998779 555.029236,816.010742 555.716858,815.875366 
	C557.023621,814.929993 558.712463,814.248535 559.576904,812.997498 
	C566.692017,802.700317 568.283936,791.619385 562.857361,780.187744 
	C560.539001,775.303894 557.282715,770.678467 550.998779,770.000122 
	C550.998779,770.000122 551.003235,769.987549 550.625732,769.415588 
	C547.942261,768.223816 545.342957,766.296631 542.559509,765.977966 
	C534.149841,765.015259 525.671753,764.288208 517.214233,764.218933 
	C510.481201,764.163818 503.739136,765.209229 496.376251,765.904602 
	C495.952179,765.952209 495.528076,765.999878 494.577423,766.298218 
	C494.090759,766.616455 493.604065,766.934631 493.096863,768.141113 
	C493.089752,786.034119 493.082642,803.927124 493.375092,822.241211 
	C493.604736,822.497864 493.834351,822.754456 494.739258,823.373413 
	C497.543762,823.266968 500.348236,823.160522 503.536957,823.065491 
	C503.536957,823.065491 503.920074,823.033936 504.433197,823.200500 
	C504.610565,823.230103 504.787933,823.259766 505.616882,823.640442 
	C507.789368,823.560608 509.961853,823.480713 512.701965,823.242493 
	C512.891479,823.190735 513.080933,823.138977 513.384949,823.050903 
	C513.384949,823.050903 513.501587,823.021545 514.300232,823.462341 
z"/>
<path fill="#0247A8" opacity="1.000000" stroke="none" 
	d="
M139.650696,888.064819 
	C150.908554,887.641602 161.867905,889.314941 172.403061,885.102173 
	C184.542801,880.247803 188.257263,871.342896 184.880463,860.664734 
	C182.604309,853.466919 175.656357,850.477844 169.277618,848.250488 
	C156.166687,843.672302 142.780365,839.864746 129.442551,835.961548 
	C121.959427,833.771790 115.371094,830.019897 109.129448,825.511780 
	C108.731018,825.224060 108.484161,824.717834 108.075943,824.453491 
	C94.658730,815.763489 90.372726,802.828674 90.029434,787.555054 
	C89.768547,775.947449 91.911224,765.210999 98.824043,755.888489 
	C107.278557,744.486816 119.270805,738.304932 132.790604,735.134094 
	C145.276840,732.205688 157.917694,733.027161 170.646805,733.887146 
	C182.471649,734.686096 193.340790,738.342712 204.286148,742.159180 
	C211.751587,744.762268 211.730606,744.792297 211.718063,752.983765 
	C211.705048,761.499817 211.715164,770.015869 211.715164,778.145569 
	C205.980484,775.765076 199.439453,772.415833 192.516220,770.343201 
	C184.603333,767.974304 176.276520,767.024719 168.265594,764.936584 
	C159.789886,762.727234 151.550003,764.299988 143.482178,766.207031 
	C139.045303,767.255798 134.396759,769.598694 131.055801,772.674683 
	C121.836685,781.162659 123.460892,793.847290 134.834396,799.027405 
	C146.179062,804.194275 158.113190,808.173950 170.004227,812.005920 
	C183.639145,816.399902 197.131927,820.894653 208.059692,830.644714 
	C217.342072,838.926758 222.097366,849.195801 221.929825,861.858826 
	C221.805054,871.289368 221.910355,880.673157 217.744492,889.417786 
	C210.004105,905.665710 196.253326,914.280945 179.352951,917.718079 
	C169.108032,919.801697 158.408600,921.202820 148.027740,920.672363 
	C135.080444,920.010803 121.971291,918.435852 109.747063,913.199646 
	C108.442421,912.640808 106.971916,912.445618 105.562820,912.157837 
	C92.279640,909.445007 87.884850,901.225830 89.926712,888.229919 
	C90.784805,882.768372 90.069565,877.059570 90.069565,872.991516 
	C102.551262,877.229126 116.088493,881.921570 129.704529,886.372864 
	C132.730225,887.362061 136.033676,887.501648 139.650696,888.064819 
z"/>
<path fill="#0247A8" opacity="1.000000" stroke="none" 
	d="
M827.815796,887.086304 
	C836.250549,887.405640 844.316650,888.331116 852.305298,887.881042 
	C861.080322,887.386780 869.907776,886.299866 876.535522,879.036377 
	C886.036377,868.623840 882.206848,857.254944 872.015930,852.296021 
	C861.079163,846.974365 849.130005,843.574524 837.400696,840.081299 
	C823.307068,835.883972 810.225769,830.267029 798.266602,821.337097 
	C793.814636,818.012878 792.701599,813.631104 790.345276,809.799133 
	C787.819153,805.691101 786.723206,800.295349 786.359436,795.361633 
	C785.811401,787.928833 785.715759,780.306946 786.751709,772.951904 
	C788.097229,763.398621 793.680908,755.932373 800.425964,748.991394 
	C809.410278,739.746155 820.603516,735.920349 832.693726,734.223755 
	C840.182983,733.172791 847.860291,733.446838 855.454590,733.162292 
	C870.169861,732.610779 883.768005,737.194885 897.522644,741.683838 
	C906.021545,744.457642 909.029175,748.933228 907.868713,757.738708 
	C906.967773,764.574585 907.688660,771.624268 907.688660,779.221313 
	C895.016907,772.193787 881.848145,767.597351 867.926636,765.331360 
	C855.130981,763.248535 842.483704,762.657349 830.504944,769.173889 
	C824.273499,772.563904 820.900574,777.551697 820.981689,784.636230 
	C821.061035,791.557922 823.759338,797.378418 830.350403,800.053223 
	C840.256836,804.073608 850.299011,807.883667 860.536255,810.935303 
	C875.797363,815.484558 890.821716,820.512207 903.146057,830.936707 
	C910.868530,837.468628 915.320190,846.309814 916.864990,856.412781 
	C919.381531,872.870544 915.790710,888.047974 904.791077,900.433655 
	C899.767639,906.089966 892.572632,910.162048 885.748840,913.802307 
	C872.117920,921.074036 856.837036,920.967773 841.974121,921.142822 
	C834.463745,921.231384 826.919617,918.458923 819.390686,916.980408 
	C819.227173,916.948303 819.029297,916.846741 818.903442,916.902954 
	C814.223328,918.993103 811.037842,915.002380 807.176575,913.891724 
	C802.501404,912.547058 798.020508,910.504761 793.498047,908.660156 
	C791.091614,907.678589 788.774963,906.476929 785.736816,905.056152 
	C785.736816,894.894348 785.736816,884.231018 785.736816,873.900757 
	C799.993896,878.411377 813.703430,882.748779 827.815796,887.086304 
z"/>
<path fill="#0149AB" opacity="1.000000" stroke="none" 
	d="
M634.358948,822.899780 
	C634.318420,822.731384 634.277893,822.562927 634.203674,821.945435 
	C634.170044,821.496277 634.106628,821.104431 634.106628,821.104431 
	C634.125793,820.904480 634.145020,820.704529 634.160278,820.001831 
	C634.156250,819.499084 634.097412,819.093933 634.097412,819.093933 
	C634.120605,818.915955 634.143799,818.737976 634.335693,817.918762 
	C634.412415,812.845154 634.320374,808.412781 634.228333,803.980469 
	C634.234924,803.542847 634.241516,803.105164 634.397095,802.050659 
	C634.438843,799.948181 634.331665,798.462646 634.224426,796.977051 
	C634.216980,796.793701 634.209534,796.610352 634.193115,795.963806 
	C634.184143,795.500610 634.120117,795.120056 634.120117,795.120056 
	C634.140381,794.913696 634.160645,794.707397 634.184265,794.001343 
	C634.187622,793.501648 634.123352,793.122620 634.123352,793.122620 
	C634.162659,792.949036 634.201965,792.775452 634.393555,792.206543 
	C634.650574,791.472168 634.587463,791.168640 634.356689,790.900574 
	C634.315613,790.732971 634.274475,790.565369 634.196167,789.946106 
	C634.158936,789.494507 634.096985,789.094910 634.096985,789.094910 
	C634.116150,788.911377 634.135315,788.727905 634.316040,787.920837 
	C634.437561,784.164368 634.397461,781.031494 634.357300,777.898621 
	C634.333862,776.234558 634.310486,774.570435 634.435913,772.241821 
	C634.432434,770.718079 634.280090,769.858887 634.127747,768.999695 
	C634.174438,768.570618 634.221191,768.141541 634.461548,767.002808 
	C634.800659,759.323059 634.990601,752.353455 635.079285,745.382629 
	C635.168579,738.363647 635.673645,737.812439 642.860474,737.798706 
	C648.677734,737.787598 654.495178,737.837036 660.312439,737.821045 
	C667.219971,737.802124 668.031128,738.526367 668.035706,745.516541 
	C668.066040,792.236877 668.066528,838.957153 668.101501,886.053894 
	C668.448669,887.605347 668.770996,888.780396 669.305176,889.830566 
	C669.807739,889.541382 670.069519,889.339600 670.470581,889.009399 
	C670.638916,888.918579 670.962158,888.713989 670.962158,888.713989 
	C671.113159,888.859924 671.264099,889.005798 672.067383,889.471802 
	C677.201416,889.959473 681.683044,890.127075 686.545410,890.391968 
	C689.566406,890.658142 692.206238,890.966797 694.846802,890.973633 
	C715.569031,891.027710 736.291382,891.023926 757.037964,891.503723 
	C757.080872,897.125427 757.120056,902.281311 757.113708,907.437256 
	C757.103516,915.704529 756.887939,915.950134 748.784912,915.954468 
	C713.690674,915.973083 678.596191,915.910034 643.502502,916.044373 
	C639.195679,916.060852 635.676392,915.622620 634.163269,910.968384 
	C634.178284,909.557800 634.193298,908.147217 634.189148,906.118530 
	C634.169922,905.500488 634.108704,905.107422 634.108704,905.107422 
	C634.148682,904.935791 634.188599,904.764160 634.440308,903.961060 
	C634.553162,899.854492 634.454163,896.379456 634.355225,892.904419 
	C634.309204,892.148254 634.263184,891.392090 634.196899,890.068481 
	C634.176575,889.501038 634.114502,889.117981 634.114502,889.117981 
	C634.169373,888.663879 634.224182,888.209717 634.474976,887.026978 
	C634.565796,877.165344 634.460693,868.032410 634.355591,858.899414 
	C634.317627,858.729065 634.279602,858.558655 634.217834,857.945190 
	C634.194153,857.502075 634.128906,857.128601 634.128906,857.128601 
	C634.156555,856.942749 634.184265,856.756836 634.401611,855.929077 
	C634.505188,851.824585 634.419189,848.361938 634.333130,844.899292 
	C634.289246,843.509155 634.245361,842.119080 634.182983,840.115967 
	C634.164490,839.503052 634.105835,839.108276 634.105835,839.108276 
	C634.128296,838.904785 634.150757,838.701294 634.178162,838.000183 
	C634.183044,837.502625 634.120178,837.120239 634.120178,837.120239 
	C634.147461,836.935974 634.174805,836.751648 634.383545,835.940796 
	C634.494324,832.509033 634.423706,829.703857 634.353027,826.898621 
	C634.316101,826.728638 634.279236,826.558594 634.220947,825.945740 
	C634.199585,825.502869 634.132568,825.128357 634.132568,825.128357 
	C634.171143,824.954163 634.209717,824.779968 634.401123,824.209290 
	C634.659546,823.471558 634.594543,823.167175 634.358948,822.899780 
z"/>
<path fill="#28549D" opacity="1.000000" stroke="none" 
	d="
M110.378433,647.309631 
	C110.207031,646.920166 110.362144,646.934143 110.951828,646.959167 
	C122.191521,647.010071 132.841537,647.058533 143.491562,647.058289 
	C254.323990,647.055725 365.156433,647.045288 476.194855,647.082642 
	C476.400848,647.128174 476.816620,647.200134 476.816620,647.200134 
	C475.062439,647.465881 473.308319,647.963989 471.554077,647.964294 
	C361.859619,647.986023 252.165146,647.973816 142.470688,647.940918 
	C131.830383,647.937744 121.190117,647.783325 110.378433,647.309631 
z"/>
<path fill="#02277B" opacity="1.000000" stroke="none" 
	d="
M668.076721,885.677490 
	C668.066528,838.957153 668.066040,792.236877 668.035706,745.516541 
	C668.031128,738.526367 667.219971,737.802124 660.312439,737.821045 
	C654.495178,737.837036 648.677734,737.787598 642.860474,737.798706 
	C635.673645,737.812439 635.168579,738.363647 635.079285,745.382629 
	C634.990601,752.353455 634.800659,759.323059 634.499634,766.681152 
	C633.875854,762.625244 633.201782,758.190857 632.995239,753.734802 
	C632.773682,748.957275 632.856140,744.151733 633.119141,739.375732 
	C633.180786,738.256775 634.442810,736.323181 635.255005,736.267883 
	C640.940857,735.880615 646.653687,735.887939 653.119324,735.899109 
	C655.545715,736.049438 657.210632,736.070496 658.875549,736.089783 
	C668.938171,736.206177 668.933838,736.206055 668.931213,746.415283 
	C668.919922,790.205078 668.925598,833.994934 668.866638,877.784668 
	C668.863037,880.415955 668.351746,883.046570 668.076721,885.677490 
z"/>
<path fill="#02277B" opacity="1.000000" stroke="none" 
	d="
M633.948853,911.175354 
	C635.676392,915.622620 639.195679,916.060852 643.502502,916.044373 
	C678.596191,915.910034 713.690674,915.973083 748.784912,915.954468 
	C756.887939,915.950134 757.103516,915.704529 757.113708,907.437256 
	C757.120056,902.281311 757.080872,897.125427 756.665039,891.323975 
	C754.957825,890.509583 753.647583,890.193115 752.337524,890.193726 
	C730.279907,890.203979 708.222229,890.253723 686.164612,890.294739 
	C681.683044,890.127075 677.201416,889.959473 672.337036,889.634399 
	C688.548462,889.344055 705.142578,889.174927 721.737061,889.090210 
	C733.837036,889.028442 745.937622,889.078125 758.941223,889.078125 
	C758.941223,898.032654 758.941223,907.064453 758.415527,916.582031 
	C720.035156,917.054016 682.180420,917.020691 644.325806,917.062256 
	C641.200989,917.065735 638.076660,917.577637 634.952148,917.853271 
	C634.546265,915.696289 634.140381,913.539307 633.948853,911.175354 
z"/>
<path fill="#002073" opacity="1.000000" stroke="none" 
	d="
M844.828003,343.170776 
	C842.974976,343.552551 840.847656,344.020691 838.720276,344.021484 
	C768.208313,344.047394 697.696289,344.033203 627.184326,343.997345 
	C624.701233,343.996094 622.218323,343.714172 619.349121,343.418030 
	C620.034424,343.166870 621.105896,343.060730 623.047485,342.966675 
	C652.196777,342.977753 680.475952,342.996826 708.755127,342.971161 
	C753.834656,342.930206 798.914185,342.859467 843.993713,342.801331 
	C844.180420,342.880615 844.367065,342.959900 844.828003,343.170776 
z"/>
<path fill="#244FA0" opacity="1.000000" stroke="none" 
	d="
M843.700439,342.506958 
	C798.914185,342.859467 753.834656,342.930206 708.755127,342.971161 
	C680.475952,342.996826 652.196777,342.977753 623.451172,342.933411 
	C624.382019,342.588440 625.779114,342.027405 627.176453,342.026794 
	C698.426514,341.995026 769.676636,342.010315 840.926697,342.029694 
	C841.753540,342.029907 842.580383,342.149017 843.700439,342.506958 
z"/>
<path fill="#0145A0" opacity="1.000000" stroke="none" 
	d="
M668.101501,886.053894 
	C668.351746,883.046570 668.863037,880.415955 668.866638,877.784668 
	C668.925598,833.994934 668.919922,790.205078 668.931213,746.415283 
	C668.933838,736.206055 668.938171,736.206177 658.875549,736.089783 
	C657.210632,736.070496 655.545715,736.049438 653.409302,736.024597 
	C653.279358,735.450012 653.596375,734.402466 653.966309,734.383423 
	C658.000122,734.175781 662.062988,733.845520 666.074707,734.139099 
	C668.711548,734.331970 670.105896,735.989075 670.065308,739.172607 
	C669.874268,754.149658 669.602966,769.143433 670.114685,784.105530 
	C670.476196,794.676758 669.689270,805.202209 669.930725,815.756592 
	C670.181824,826.735840 669.985840,837.725220 669.985779,848.710205 
	C669.985779,859.861572 669.955505,871.013184 670.015930,882.164185 
	C670.026428,884.109924 670.419861,886.053467 670.799316,888.356018 
	C670.962158,888.713989 670.638916,888.918579 670.249878,889.129333 
	C669.587463,889.523315 669.331665,889.728455 669.093323,889.955444 
	C668.770996,888.780396 668.448669,887.605347 668.101501,886.053894 
z"/>
<path fill="#033B92" opacity="1.000000" stroke="none" 
	d="
M476.867432,646.715454 
	C476.816620,647.200134 476.400848,647.128174 476.107239,646.835449 
	C475.567169,646.084595 475.320740,645.626526 475.074341,645.168457 
	C475.090607,644.591309 475.106903,644.014099 475.246033,642.653809 
	C475.555511,639.726196 475.902954,637.581909 475.904785,635.437317 
	C475.932495,602.717468 475.930084,569.997620 475.876007,537.277832 
	C475.872223,534.976501 475.409027,532.676025 475.159454,530.375122 
	C475.098541,528.898926 475.037628,527.422729 474.987976,525.504456 
	C475.670563,526.454529 476.925659,527.845581 476.928314,529.239014 
	C477.002502,568.236084 476.949951,607.233398 476.867432,646.715454 
z"/>
<path fill="#154496" opacity="1.000000" stroke="none" 
	d="
M635.425415,917.902588 
	C638.076660,917.577637 641.200989,917.065735 644.325806,917.062256 
	C682.180420,917.020691 720.035156,917.054016 758.345093,917.047974 
	C757.076660,917.345886 755.353210,917.939148 753.629089,917.941040 
	C714.385681,917.983704 675.142212,917.961731 635.425415,917.902588 
z"/>
<path fill="#002474" opacity="1.000000" stroke="none" 
	d="
M489.978882,516.958679 
	C490.257111,517.729736 490.779022,518.501221 490.777466,519.271729 
	C490.746887,534.600342 490.655853,549.928894 490.403259,565.633667 
	C490.103241,560.300659 489.977081,554.591492 489.920471,547.997437 
	C489.986298,537.061279 489.982574,527.010010 489.978882,516.958679 
z"/>
<path fill="#244FA0" opacity="1.000000" stroke="none" 
	d="
M471.455383,466.981964 
	C471.455383,466.981964 471.458801,466.649689 471.470856,466.477936 
	C487.688446,466.225616 503.893951,466.145050 520.565063,466.145020 
	C521.030701,466.225586 521.062317,466.502380 520.602356,466.696259 
	C503.913391,466.920746 487.684387,466.951355 471.455383,466.981964 
z"/>
<path fill="#002474" opacity="1.000000" stroke="none" 
	d="
M490.276306,600.313843 
	C490.613220,609.579468 490.959961,619.273804 491.028473,628.970154 
	C491.063202,633.884216 490.595734,638.801819 490.151062,643.602051 
	C489.892273,630.995178 489.837708,618.504089 489.783173,606.012939 
	C489.912506,604.256470 490.041809,602.499939 490.276306,600.313843 
z"/>
<path fill="#002073" opacity="1.000000" stroke="none" 
	d="
M473.018982,451.295685 
	C474.252197,450.873627 475.486267,450.083374 476.718506,450.086243 
	C489.595947,450.116425 502.473114,450.273804 515.804199,450.563293 
	C516.257996,450.730621 516.077820,450.712952 515.625427,450.736389 
	C501.121674,450.938477 487.070343,451.117096 473.018982,451.295685 
z"/>
<path fill="#244FA0" opacity="1.000000" stroke="none" 
	d="
M473.043365,451.415802 
	C487.070343,451.117096 501.121674,450.938477 515.635498,450.646423 
	C514.491089,451.017517 512.887390,451.909576 511.277039,451.921692 
	C498.859253,452.015228 486.440155,451.938324 473.570740,451.844818 
	C473.119965,451.775421 473.067749,451.535919 473.043365,451.415802 
z"/>
<path fill="#002474" opacity="1.000000" stroke="none" 
	d="
M88.263611,643.475464 
	C94.898056,644.181641 101.760963,645.179626 108.913528,646.403625 
	C101.916977,648.443176 95.333084,645.175049 88.263611,643.475464 
z"/>
<path fill="#244FA0" opacity="1.000000" stroke="none" 
	d="
M489.501343,606.314697 
	C489.837708,618.504089 489.892273,630.995178 489.940491,643.998901 
	C489.934113,644.511536 489.854706,644.632751 489.803162,644.686401 
	C489.495514,640.493164 489.051086,636.247498 489.023163,631.999084 
	C488.967499,623.539001 489.140808,615.077393 489.501343,606.314697 
z"/>
<path fill="#244FA0" opacity="1.000000" stroke="none" 
	d="
M489.767944,516.848999 
	C489.982574,527.010010 489.986298,537.061279 489.955261,547.583008 
	C489.604919,545.840332 489.076843,543.633545 489.011749,541.413147 
	C488.773163,533.278992 488.688568,525.140320 488.382996,516.666992 
	C488.665649,516.466858 489.111359,516.603027 489.767944,516.848999 
z"/>
<path fill="#02277B" opacity="1.000000" stroke="none" 
	d="
M634.255737,859.356445 
	C634.460693,868.032410 634.565796,877.165344 634.512634,886.685730 
	C634.288208,877.986572 634.222046,868.900024 634.255737,859.356445 
z"/>
<path fill="#244FA0" opacity="1.000000" stroke="none" 
	d="
M489.374695,567.507080 
	C489.582764,567.179749 489.778229,567.343567 489.874817,567.944702 
	C489.987732,578.433960 490.004059,588.322021 490.020355,598.210144 
	C490.020355,598.210144 489.592468,598.218994 489.375519,598.199707 
	C489.161285,588.065063 489.163971,577.949768 489.374695,567.507080 
z"/>
<path fill="#0149AB" opacity="1.000000" stroke="none" 
	d="
M510.176880,853.537231 
	C516.471191,852.836670 523.008362,852.376709 529.552002,852.044617 
	C532.349609,851.902771 535.160706,852.027405 538.427002,852.039795 
	C537.061035,852.369385 535.243103,852.890564 533.404907,852.976013 
	C525.747437,853.332031 518.083740,853.556763 510.176880,853.537231 
z"/>
<path fill="#02277B" opacity="1.000000" stroke="none" 
	d="
M633.902710,804.193298 
	C634.320374,808.412781 634.412415,812.845154 634.328186,817.649658 
	C633.960327,813.483337 633.768738,808.944702 633.902710,804.193298 
z"/>
<path fill="#002474" opacity="1.000000" stroke="none" 
	d="
M490.127716,650.263550 
	C491.534058,652.735962 492.849823,655.596375 494.046875,658.718384 
	C492.631134,656.203796 491.334137,653.427673 490.127716,650.263550 
z"/>
<path fill="#02277B" opacity="1.000000" stroke="none" 
	d="
M634.251831,778.307983 
	C634.397461,781.031494 634.437561,784.164368 634.292358,787.645142 
	C634.120117,784.901123 634.133179,781.809204 634.251831,778.307983 
z"/>
<path fill="#02277B" opacity="1.000000" stroke="none" 
	d="
M634.134827,893.242432 
	C634.454163,896.379456 634.553162,899.854492 634.498047,903.703125 
	C634.200806,900.577942 634.057617,897.079163 634.134827,893.242432 
z"/>
<path fill="#02277B" opacity="1.000000" stroke="none" 
	d="
M634.237488,845.334229 
	C634.419189,848.361938 634.505188,851.824585 634.415283,855.647461 
	C634.206848,852.594910 634.174316,849.182007 634.237488,845.334229 
z"/>
<path fill="#02277B" opacity="1.000000" stroke="none" 
	d="
M634.244751,827.250122 
	C634.423706,829.703857 634.494324,832.509033 634.393555,835.661499 
	C634.193665,833.206360 634.165100,830.404053 634.244751,827.250122 
z"/>
<path fill="#02277B" opacity="1.000000" stroke="none" 
	d="
M633.915894,797.180542 
	C634.331665,798.462646 634.438843,799.948181 634.382812,801.722656 
	C634.015564,800.469055 633.811462,798.926514 633.915894,797.180542 
z"/>
<path fill="#002073" opacity="1.000000" stroke="none" 
	d="
M851.708374,344.099731 
	C850.499390,344.021362 848.917603,343.852570 847.123962,343.457489 
	C848.386597,343.490570 849.861023,343.749969 851.708374,344.099731 
z"/>
<path fill="#02277B" opacity="1.000000" stroke="none" 
	d="
M633.843872,769.144897 
	C634.280090,769.858887 634.432434,770.718079 634.464355,771.825928 
	C634.082520,771.146484 633.821228,770.218262 633.843872,769.144897 
z"/>
<path fill="#002474" opacity="1.000000" stroke="none" 
	d="
M489.765717,646.127441 
	C490.158264,646.558105 490.322083,647.113586 490.390015,647.879517 
	C490.041779,647.477356 489.789398,646.864807 489.765717,646.127441 
z"/>
<path fill="#033B92" opacity="1.000000" stroke="none" 
	d="
M474.925171,524.735596 
	C474.782867,524.816406 474.606445,524.651978 474.493622,524.451660 
	C474.456451,524.385681 474.583649,524.226990 474.730225,524.038208 
	C474.855103,524.135925 474.885437,524.306152 474.925171,524.735596 
z"/>
<path fill="#02277B" opacity="1.000000" stroke="none" 
	d="
M633.939087,793.164795 
	C634.123352,793.122620 634.187622,793.501648 634.156250,793.691650 
	C634.001587,793.656677 633.878174,793.431824 633.939087,793.164795 
z"/>
<path fill="#02277B" opacity="1.000000" stroke="none" 
	d="
M633.921875,905.153687 
	C634.108704,905.107422 634.169922,905.500488 634.140381,905.697510 
	C633.985596,905.663025 633.860352,905.431519 633.921875,905.153687 
z"/>
<path fill="#02277B" opacity="1.000000" stroke="none" 
	d="
M633.909790,789.144897 
	C634.096985,789.094910 634.158936,789.494507 634.132324,789.695190 
	C633.977966,789.662231 633.850281,789.428528 633.909790,789.144897 
z"/>
<path fill="#02277B" opacity="1.000000" stroke="none" 
	d="
M634.303345,791.195801 
	C634.587463,791.168640 634.650574,791.472168 634.452026,791.946106 
	C634.322144,791.884338 634.286011,791.687683 634.303345,791.195801 
z"/>
<path fill="#02277B" opacity="1.000000" stroke="none" 
	d="
M633.928955,889.161316 
	C634.114502,889.117981 634.176575,889.501038 634.146484,889.692993 
	C633.992004,889.658203 633.867676,889.431396 633.928955,889.161316 
z"/>
<path fill="#02277B" opacity="1.000000" stroke="none" 
	d="
M633.949707,825.168945 
	C634.132568,825.128357 634.199585,825.502869 634.166504,825.690552 
	C634.011230,825.655396 633.889038,825.432495 633.949707,825.168945 
z"/>
<path fill="#02277B" opacity="1.000000" stroke="none" 
	d="
M633.935425,795.162964 
	C634.120117,795.120056 634.184143,795.500610 634.153381,795.691467 
	C633.998657,795.656799 633.874695,795.431335 633.935425,795.162964 
z"/>
<path fill="#02277B" opacity="1.000000" stroke="none" 
	d="
M633.945862,857.169067 
	C634.128906,857.128601 634.194153,857.502075 634.162109,857.689270 
	C634.007690,857.654114 633.885254,857.431824 633.945862,857.169067 
z"/>
<path fill="#02277B" opacity="1.000000" stroke="none" 
	d="
M633.909424,819.143921 
	C634.097412,819.093933 634.156250,819.499084 634.128418,819.702209 
	C633.974243,819.668213 633.847839,819.431091 633.909424,819.143921 
z"/>
<path fill="#02277B" opacity="1.000000" stroke="none" 
	d="
M633.920044,821.151733 
	C634.106628,821.104431 634.170044,821.496277 634.141724,821.692993 
	C633.986755,821.659485 633.860107,821.429260 633.920044,821.151733 
z"/>
<path fill="#02277B" opacity="1.000000" stroke="none" 
	d="
M634.306152,823.195740 
	C634.594543,823.167175 634.659546,823.471558 634.458618,823.947815 
	C634.326660,823.885742 634.290039,823.688721 634.306152,823.195740 
z"/>
<path fill="#02277B" opacity="1.000000" stroke="none" 
	d="
M633.918579,839.154053 
	C634.105835,839.108276 634.164490,839.503052 634.134888,839.700684 
	C633.980652,839.665527 633.856018,839.432678 633.918579,839.154053 
z"/>
<path fill="#02277B" opacity="1.000000" stroke="none" 
	d="
M633.935181,837.162964 
	C634.120178,837.120239 634.183044,837.502625 634.151733,837.694214 
	C633.997009,837.659058 633.873596,837.432434 633.935181,837.162964 
z"/>

<path fill="#002474" opacity="1.000000" stroke="none" 
	d="
M474.686523,645.312622 
	C475.320740,645.626526 475.567169,646.084595 475.901245,646.789917 
	C365.156433,647.045288 254.323990,647.055725 143.491562,647.058289 
	C132.841537,647.058533 122.191521,647.010071 111.027824,646.976074 
	C113.785278,646.587585 117.056244,645.876221 120.327576,645.874512 
	C235.492920,645.814331 350.658295,645.823364 465.823669,645.802856 
	C468.648712,645.802307 471.473694,645.577209 474.686523,645.312622 
z"/>
<path fill="#002474" opacity="1.000000" stroke="none" 
	d="
M475.163818,530.807678 
	C475.409027,532.676025 475.872223,534.976501 475.876007,537.277832 
	C475.930084,569.997620 475.932495,602.717468 475.904785,635.437317 
	C475.902954,637.581909 475.555511,639.726196 475.270752,642.221436 
	C475.171173,605.461609 475.169678,568.350891 475.163818,530.807678 
z"/>
<path fill="#002474" opacity="1.000000" stroke="none" 
	d="
M83.974464,641.068359 
	C83.968025,641.100586 83.954010,640.908386 83.954010,640.908386 
	C83.954010,640.908386 84.044128,641.078796 83.982826,641.071777 
	C83.921524,641.064697 83.980904,641.036194 83.974464,641.068359 
z"/>

<path fill="#05368E" opacity="1.000000" stroke="none" 
	d="
M551.132080,486.367371 
	C554.970337,486.679138 558.945312,487.841003 562.926025,487.860748 
	C594.242981,488.016266 625.560913,487.952698 656.878601,487.958008 
	C680.293396,487.962006 703.708191,487.971100 727.122986,487.972656 
	C759.679321,487.974792 792.235901,488.035583 824.791931,487.926300 
	C832.896606,487.899048 840.999695,487.053406 849.103149,487.058716 
	C857.830139,487.064423 866.554382,487.773132 875.284058,487.910828 
	C885.849304,488.077515 896.424255,488.165100 906.984070,487.880310 
	C911.303772,487.763824 915.974976,486.596771 916.941101,481.483765 
	C917.463074,478.721436 917.023438,475.213226 915.690186,472.764221 
	C910.498535,463.228241 904.775818,453.981445 899.240845,444.278320 
	C908.083862,453.669434 915.393860,464.575836 919.000061,477.166626 
	C921.272034,485.098846 915.714172,489.535278 904.788696,489.745422 
	C901.673401,489.424957 899.357910,489.068268 897.042419,489.067932 
	C787.902832,489.052979 678.763245,489.062958 569.623657,489.115204 
	C566.819641,489.116547 564.015808,489.620605 561.211914,489.890259 
	C557.898438,488.822968 554.584961,487.755646 551.132080,486.367371 
z"/>
<path fill="#05368E" opacity="1.000000" stroke="none" 
	d="
M852.817810,373.724670 
	C845.193726,373.014557 837.409912,371.160614 829.615967,371.116882 
	C781.214844,370.845306 732.811462,370.993896 684.408813,370.972504 
	C665.888794,370.964325 647.368835,370.875488 628.384705,370.732117 
	C630.300476,370.103546 632.679688,369.100281 635.060364,369.096893 
	C701.799683,369.001770 768.539246,368.935272 835.278137,369.122223 
	C841.203491,369.138824 847.769470,368.376587 852.817810,373.724670 
z"/>
<path fill="#001F78" opacity="1.000000" stroke="none" 
	d="
M561.661499,489.901733 
	C564.015808,489.620605 566.819641,489.116547 569.623657,489.115204 
	C678.763245,489.062958 787.902832,489.052979 897.042419,489.067932 
	C899.357910,489.068268 901.673401,489.424957 904.352295,489.736755 
	C790.514221,489.876526 676.312622,489.894867 561.661499,489.901733 
z"/>
<path fill="#05368E" opacity="1.000000" stroke="none" 
	d="
M570.693115,438.113068 
	C567.695190,443.823700 564.302307,449.601044 561.066284,455.464966 
	C557.209595,462.453552 553.236267,469.399109 549.865784,476.621063 
	C548.900452,478.689636 549.847778,481.650909 549.930969,484.604858 
	C549.119629,482.522888 547.380798,479.917816 547.689758,477.583801 
	C548.132019,474.242737 549.731323,470.906982 551.434387,467.908569 
	C556.446960,459.083527 561.711609,450.399902 566.990051,441.729462 
	C567.814392,440.375458 569.226990,439.379608 570.693115,438.113068 
z"/>
<path fill="#05368E" opacity="1.000000" stroke="none" 
	d="
M899.008118,442.512817 
	C894.988281,436.454437 890.858948,430.076538 886.896667,423.596497 
	C883.501465,418.043823 880.297546,412.374207 876.974609,406.398132 
	C877.875061,406.695557 879.161865,407.143127 879.691162,408.038513 
	C886.011536,418.730652 892.225830,429.485504 898.437195,440.241699 
	C898.757080,440.795563 898.799561,441.509552 899.008118,442.512817 
z"/>
<path fill="#001C72" opacity="1.000000" stroke="none" 
	d="
M608.977417,582.865356 
	C607.595032,583.256714 606.213806,583.984375 604.830078,583.989197 
	C582.768433,584.067017 560.706543,584.063782 538.644714,584.025146 
	C537.544312,584.023254 536.444763,583.531738 535.630493,583.077698 
	C560.269897,582.879883 584.623657,582.872620 608.977417,582.865356 
z"/>
<path fill="#2A50A6" opacity="1.000000" stroke="none" 
	d="
M608.990967,582.697754 
	C584.623657,582.872620 560.269897,582.879883 535.443787,582.846619 
	C534.971436,582.806091 534.961365,582.504272 534.952820,582.353516 
	C559.328064,582.159485 583.711853,582.116272 608.564758,582.134033 
	C609.033875,582.194946 609.004578,582.530090 608.990967,582.697754 
z"/>
<path fill="#05368E" opacity="1.000000" stroke="none" 
	d="
M600.638062,387.128052 
	C598.855469,391.198639 596.994690,395.550659 594.656677,399.629181 
	C591.148438,405.749084 587.305542,411.677155 583.291321,417.822632 
	C584.505737,414.560669 585.746643,410.994385 587.620850,407.799591 
	C591.691040,400.861450 596.084717,394.113068 600.638062,387.128052 
z"/>
<path fill="#244FA0" opacity="1.000000" stroke="none" 
	d="
M863.244507,583.112732 
	C864.588989,582.738586 866.057556,582.046509 867.528137,582.042358 
	C888.041626,581.984131 908.555298,582.020020 929.534058,582.093140 
	C929.999207,582.153320 929.971191,582.554871 929.495178,582.774719 
	C907.218933,583.026123 885.418762,583.057678 863.618530,583.089172 
	C863.618530,583.089172 863.369629,583.114746 863.244507,583.112732 
z"/>
<path fill="#002073" opacity="1.000000" stroke="none" 
	d="
M864.015381,583.296265 
	C885.418762,583.057678 907.218933,583.026123 929.482117,582.975525 
	C928.704773,583.297546 927.466003,583.929688 926.223999,583.936035 
	C906.930054,584.034485 887.635620,584.063354 868.341309,584.062500 
	C867.031616,584.062439 865.721863,583.698242 864.015381,583.296265 
z"/>
<path fill="#001C72" opacity="1.000000" stroke="none" 
	d="
M471.866943,467.171051 
	C487.684387,466.951355 503.913391,466.920746 520.617188,466.834778 
	C520.336853,467.101257 519.580322,467.706635 518.826660,467.703094 
	C503.310425,467.630402 487.794495,467.488373 471.866943,467.171051 
z"/>
<path fill="#05368E" opacity="1.000000" stroke="none" 
	d="
M582.640076,418.118500 
	C579.169922,424.553986 575.398376,431.129242 571.317383,437.859802 
	C574.784851,431.429474 578.561707,424.843872 582.640076,418.118500 
z"/>
<path fill="#05368E" opacity="1.000000" stroke="none" 
	d="
M875.979797,403.584198 
	C872.391846,397.862793 868.759216,391.774200 865.109802,385.322479 
	C868.707031,391.045227 872.321106,397.131134 875.979797,403.584198 
z"/>
<path fill="#001C72" opacity="1.000000" stroke="none" 
	d="
M814.604980,606.597412 
	C814.316711,604.579407 814.175049,602.177307 814.003296,599.371094 
	C813.973206,593.341187 813.973206,587.715393 813.973206,582.089600 
	C814.232666,582.084778 814.492065,582.079895 814.751526,582.075073 
	C814.751526,590.121155 814.751526,598.167236 814.604980,606.597412 
z"/>
<path fill="#002474" opacity="1.000000" stroke="none" 
	d="
M490.228210,597.830811 
	C490.004059,588.322021 489.987732,578.433960 489.970795,568.028687 
	C490.125488,577.491455 490.280792,587.471436 490.228210,597.830811 
z"/>
<path fill="#05368E" opacity="1.000000" stroke="none" 
	d="
M625.627441,370.750671 
	C622.247498,371.939056 618.524719,372.971161 614.404480,373.996277 
	C617.058716,370.507202 620.859436,369.513580 625.627441,370.750671 
z"/>
<path fill="#05368E" opacity="1.000000" stroke="none" 
	d="
M606.632874,379.090790 
	C605.168823,381.553986 603.380554,384.125427 601.278809,386.818695 
	C602.746521,384.360016 604.527527,381.779541 606.632874,379.090790 
z"/>
<path fill="#05368E" opacity="1.000000" stroke="none" 
	d="
M860.884277,379.687744 
	C858.403992,378.227295 855.813843,376.440765 853.098816,374.337158 
	C855.574097,375.800629 858.174316,377.581146 860.884277,379.687744 
z"/>
<path fill="#001C72" opacity="1.000000" stroke="none" 
	d="
M813.960083,617.132568 
	C813.929810,615.103821 813.934631,613.261169 814.214111,611.215637 
	C814.618286,613.212891 814.751099,615.412903 814.869873,617.613708 
	C814.877808,617.760315 814.779114,617.912781 814.729980,618.062500 
	C814.485046,617.814575 814.240112,617.566650 813.960083,617.132568 
z"/>
<path fill="#05368E" opacity="1.000000" stroke="none" 
	d="
M865.009033,384.577698 
	C864.042053,383.836029 863.038696,382.754883 862.004883,381.342102 
	C862.973816,382.086365 863.973145,383.162292 865.009033,384.577698 
z"/>
<path fill="#05368E" opacity="1.000000" stroke="none" 
	d="
M611.581665,374.996765 
	C610.810730,375.910187 609.712524,376.869659 608.281555,377.845398 
	C609.050659,376.922058 610.152466,375.982422 611.581665,374.996765 
z"/>
<path fill="#002073" opacity="1.000000" stroke="none" 
	d="
M858.511108,583.173645 
	C858.783447,583.310974 858.940735,583.467224 859.098022,583.623474 
	C858.849060,583.677063 858.600037,583.730591 858.351074,583.784119 
	C858.366089,583.586914 858.381104,583.389771 858.511108,583.173645 
z"/>
<path fill="#05368E" opacity="1.000000" stroke="none" 
	d="
M613.720093,374.061279 
	C613.520386,374.284821 613.049744,374.565552 612.280518,374.847626 
	C612.471008,374.605469 612.960144,374.361969 613.720093,374.061279 
z"/>
<path fill="#001C72" opacity="1.000000" stroke="none" 
	d="
M814.435974,609.563599 
	C814.385803,609.633179 814.042114,609.595825 814.042114,609.595825 
	C814.042114,609.595825 814.125671,609.301025 814.255981,609.327759 
	C814.386230,609.354492 814.486145,609.494019 814.435974,609.563599 
z"/>
<path fill="#05368E" opacity="1.000000" stroke="none" 
	d="
M876.861206,405.868835 
	C876.701294,405.869873 876.433350,405.679901 876.193298,405.235016 
	C876.404175,405.208344 876.581543,405.440918 876.861206,405.868835 
z"/>

<path fill="#063890" opacity="1.000000" stroke="none" 
	d="
M555.373047,815.943054 
	C562.177734,807.555969 565.663818,798.251038 563.110779,786.925659 
	C561.451355,779.564270 557.016541,774.732788 551.118835,770.319702 
	C557.282715,770.678467 560.539001,775.303894 562.857361,780.187744 
	C568.283936,791.619385 566.692017,802.700317 559.576904,812.997498 
	C558.712463,814.248535 557.023621,814.929993 555.373047,815.943054 
z"/>
<path fill="#063890" opacity="1.000000" stroke="none" 
	d="
M550.814453,769.701538 
	C536.071472,765.586731 520.725403,765.843628 505.394104,765.923462 
	C502.906311,765.936401 500.418243,765.902832 497.465698,765.828369 
	C503.739136,765.209229 510.481201,764.163818 517.214233,764.218933 
	C525.671753,764.288208 534.149841,765.015259 542.559509,765.977966 
	C545.342957,766.296631 547.942261,768.223816 550.814453,769.701538 
z"/>
<path fill="#063890" opacity="1.000000" stroke="none" 
	d="
M494.840698,766.172852 
	C495.104004,784.175171 495.104004,802.302856 495.104004,821.091980 
	C497.937469,821.503479 500.768005,821.914490 503.759277,822.679688 
	C503.920074,823.033936 503.536957,823.065491 502.876648,823.077026 
	C499.498871,823.062683 496.781433,823.036865 494.063965,823.011047 
	C493.834351,822.754456 493.604736,822.497864 493.350586,821.659607 
	C493.529358,819.264771 493.901917,817.452209 493.908997,815.638184 
	C493.962708,801.810974 493.983032,787.983337 493.912140,774.156311 
	C493.900360,771.853882 493.394806,769.553955 493.117401,767.252869 
	C493.604065,766.934631 494.090759,766.616455 494.840698,766.172852 
z"/>
<path fill="#02277B" opacity="1.000000" stroke="none" 
	d="
M493.107117,767.697021 
	C493.394806,769.553955 493.900360,771.853882 493.912140,774.156311 
	C493.983032,787.983337 493.962708,801.810974 493.908997,815.638184 
	C493.901917,817.452209 493.529358,819.264771 493.200806,821.449097 
	C493.082642,803.927124 493.089752,786.034119 493.107117,767.697021 
z"/>
<path fill="#063890" opacity="1.000000" stroke="none" 
	d="
M537.763367,822.166809 
	C543.273499,820.144470 548.783691,818.122192 554.652039,816.065918 
	C550.950134,822.337036 544.224426,822.836426 537.372803,823.713379 
	C536.967651,823.482971 536.954590,823.003113 537.091675,822.865173 
	C537.414185,822.547180 537.592346,822.360352 537.763367,822.166809 
z"/>
<path fill="#2A50A6" opacity="1.000000" stroke="none" 
	d="
M537.319092,822.108276 
	C537.592346,822.360352 537.414185,822.547180 536.628052,822.858765 
	C528.518738,823.000732 521.010132,823.011169 513.501587,823.021545 
	C513.501587,823.021545 513.384949,823.050903 513.327698,823.069031 
	C515.715393,822.720154 518.153687,822.102356 520.606628,822.037415 
	C526.025513,821.893921 531.451660,822.028564 537.319092,822.108276 
z"/>
<path fill="#002073" opacity="1.000000" stroke="none" 
	d="
M513.900879,823.241943 
	C521.010132,823.011169 528.518738,823.000732 536.490967,822.996704 
	C536.954590,823.003113 536.967651,823.482971 536.959106,823.722778 
	C529.400513,823.795776 521.850342,823.629028 513.900879,823.241943 
z"/>
<path fill="#002073" opacity="1.000000" stroke="none" 
	d="
M505.291077,823.464905 
	C507.094604,823.254822 509.223938,823.220215 511.743774,823.293213 
	C509.961853,823.480713 507.789368,823.560608 505.291077,823.464905 
z"/>
<path fill="#002073" opacity="1.000000" stroke="none" 
	d="
M494.401611,823.192261 
	C496.781433,823.036865 499.498871,823.062683 502.684509,823.071289 
	C500.348236,823.160522 497.543762,823.266968 494.401611,823.192261 
z"/>
<path fill="#0A47A2" opacity="1.000000" stroke="none" 
	d="
M686.545410,890.391968 
	C708.222229,890.253723 730.279907,890.203979 752.337524,890.193726 
	C753.647583,890.193115 754.957825,890.509583 756.640869,890.858215 
	C736.291382,891.023926 715.569031,891.027710 694.846802,890.973633 
	C692.206238,890.966797 689.566406,890.658142 686.545410,890.391968 
z"/>
<path fill="#02277B" opacity="1.000000" stroke="none" 
	d="
M669.305176,889.830566 
	C669.331665,889.728455 669.587463,889.523315 670.081543,889.220093 
	C670.069519,889.339600 669.807739,889.541382 669.305176,889.830566 
z"/>
<path fill="#0148AA" opacity="1.000000" stroke="none" 
	d="
M363.820984,309.939514 
	C360.125702,310.252594 356.871216,310.819672 353.614685,310.831543 
	C335.461639,310.897736 317.308167,310.815430 299.154846,310.829620 
	C297.425079,310.830994 295.695557,311.147919 293.315857,311.382385 
	C293.315857,277.609741 293.315857,243.906464 293.315857,209.652771 
	C296.233612,209.834518 298.885712,210.142593 301.537781,210.142258 
	C322.355438,210.139633 343.211487,209.282913 363.978607,210.285858 
	C380.603790,211.088776 395.259125,218.145706 404.085449,232.929733 
	C411.357300,245.110092 411.405457,258.947357 408.514343,272.615967 
	C404.898621,289.710693 392.887115,299.318420 377.768890,305.773560 
	C373.459290,307.613708 368.773895,308.573639 363.820984,309.939514 
z"/>
</svg>